HIERARCHY
ROOT Hips
{
	OFFSET 0.00 0.00 0.00
	CHANNELS 6 Xposition Yposition Zposition Xrotation Yrotation Zrotation
	JOINT LeftUpLeg
	{
		OFFSET 3.34807 0.00000 0.00000
		CHANNELS 3 Xrotation Yrotation Zrotation
		JOINT LeftLeg
		{
			OFFSET 0.00000 -16.98552 0.00000
			CHANNELS 3 Xrotation Yrotation Zrotation
			JOINT LeftFoot
			{
				OFFSET 0.00000 -16.83686 0.00000
				CHANNELS 3 Xrotation Yrotation Zrotation
				JOINT LeftToeBase
				{
					OFFSET 0.00000 -1.59599 5.95633
					CHANNELS 3 Xrotation Yrotation Zrotation
					End Site
					{
						OFFSET 0.00000 0.00000 2.95275
					}
				}
			}
		}
	}
	JOINT RightUpLeg
	{
		OFFSET -3.34807 0.00000 0.00000
		CHANNELS 3 Xrotation Yrotation Zrotation
		JOINT RightLeg
		{
			OFFSET 0.00000 -16.98552 0.00000
			CHANNELS 3 Xrotation Yrotation Zrotation
			JOINT RightFoot
			{
				OFFSET 0.00000 -16.83686 0.00000
				CHANNELS 3 Xrotation Yrotation Zrotation
				JOINT RightToeBase
				{
					OFFSET 0.00000 -1.59599 5.95633
					CHANNELS 3 Xrotation Yrotation Zrotation
					End Site
					{
						OFFSET 0.00000 0.00000 2.95275
					}
				}
			}
		}
	}
	JOINT Spine
	{
		OFFSET 0.00000 0.03937 0.00000
		CHANNELS 3 Xrotation Yrotation Zrotation
		JOINT Spine1
		{
			OFFSET 0.00000 7.93124 0.00000
			CHANNELS 3 Xrotation Yrotation Zrotation
			JOINT Neck
			{
				OFFSET 0.00000 8.48368 0.00000
				CHANNELS 3 Xrotation Yrotation Zrotation
				JOINT Head
				{
					OFFSET 0.00000 6.65077 0.00000
					CHANNELS 3 Xrotation Yrotation Zrotation
					End Site
					{
						OFFSET 0.00000 4.52755 0.00000
					}
				}
			}
			JOINT LeftShoulder
			{
				OFFSET 0.00000 8.48368 0.00000
				CHANNELS 3 Xrotation Yrotation Zrotation
				JOINT LeftArm
				{
					OFFSET 7.74502 -0.00003 0.00000
					CHANNELS 3 Xrotation Yrotation Zrotation
					JOINT LeftForeArm
					{
						OFFSET 12.49824 -0.00005 0.00000
						CHANNELS 3 Xrotation Yrotation Zrotation
						JOINT LeftHand
						{
							OFFSET 9.88337 -0.00004 0.00000
							CHANNELS 3 Xrotation Yrotation Zrotation
							JOINT LeftHandThumb
							{
								OFFSET 0.00000 0.00000 0.00000
								CHANNELS 3 Xrotation Yrotation Zrotation
								End Site
								{
									OFFSET 0.00000 0.00000 3.93700
								}
							}
							JOINT L_Wrist_End
							{
								OFFSET 3.93700 -0.00001 0.00000
								CHANNELS 3 Xrotation Yrotation Zrotation
							}
						}
					}
				}
			}
			JOINT RightShoulder
			{
				OFFSET 0.00000 8.48368 0.00000
				CHANNELS 3 Xrotation Yrotation Zrotation
				JOINT RightArm
				{
					OFFSET -7.74502 -0.00003 0.00000
					CHANNELS 3 Xrotation Yrotation Zrotation
					JOINT RightForeArm
					{
						OFFSET -12.49824 -0.00005 0.00000
						CHANNELS 3 Xrotation Yrotation Zrotation
						JOINT RightHand
						{
							OFFSET -9.88337 -0.00004 0.00000
							CHANNELS 3 Xrotation Yrotation Zrotation
							JOINT RightHandThumb
							{
								OFFSET 0.00000 0.00000 0.00000
								CHANNELS 3 Xrotation Yrotation Zrotation
								End Site
								{
									OFFSET 0.00000 0.00000 3.93700
								}
							}
							JOINT R_Wrist_End
							{
								OFFSET -5.39369 -0.00002 0.00000
								CHANNELS 3 Xrotation Yrotation Zrotation
							}
						}
					}
				}
			}
		}
	}
}
MOTION
Frames: 6
Frame Time: 0.033332
 65.1130 36.8427 -4.9202 91.5760 88.7063 -98.3557 6.1967 3.7054 13.6082 24.5119 0.0000 0.0000 8.6766 -14.7134 -10.0021 -35.9740 0.0000 0.0000 -21.7303 -8.0573 4.1730 27.4320 -0.0000 0.0000 18.6210 -4.9957 21.8753 -12.6359 0.0000 0.0000 -1.1081 -4.8511 1.8111 12.8003 -8.5473 0.7228 -10.0051 10.6130 3.4769 -4.0071 -5.8172 -1.5394 -12.3549 20.6633 26.2329 -6.2523 -35.2603 -85.9023 -0.0003 -50.1655 -0.0001 -17.4883 -31.2128 23.5414 -0.0000 0.0000 -0.0000 -0.0000 0.0000 -0.0000 21.7615 -22.4978 -9.7286 -15.9510 41.4814 88.7851 -0.0000 8.6574 0.0000 76.5697 -63.6682 -108.6814 -0.0000 -0.0000 0.0000 -0.0000 -0.0000 0.0000
 63.7037 36.7236 -5.1981 60.2099 87.9380 -67.2678 2.6256 4.2233 13.4335 27.3503 0.0000 0.0000 4.4923 -14.0538 -11.7619 -31.7971 0.0000 -0.0000 -23.1597 -7.0564 4.5427 24.2460 0.0000 0.0000 21.4002 -5.3418 22.6467 -11.2533 0.0000 -0.0000 -0.8520 -4.5422 1.6103 12.8095 -8.2763 0.5953 -9.9149 11.0539 3.6077 -5.5365 -5.7342 -0.9685 -11.8810 20.8817 25.8197 -6.3236 -35.4147 -85.5351 -0.0002 -48.3645 -0.0001 -16.9920 -31.1709 23.8153 -0.0000 0.0000 -0.0000 -0.0000 0.0000 -0.0000 21.8714 -22.3392 -8.7445 -17.1033 41.4692 89.3201 -0.0000 8.8387 0.0000 76.3964 -65.2180 -110.4851 -0.0000 -0.0000 0.0000 -0.0000 -0.0000 0.0000
 62.4282 36.7886 -5.4829 32.9474 86.6235 -40.0398 -0.5863 6.6994 13.4197 29.3288 0.0000 0.0000 3.1943 -14.8684 -12.0670 -28.4852 0.0000 -0.0000 -22.1418 -6.9354 4.7813 17.8035 0.0000 0.0000 24.5051 -4.3034 25.1561 -4.5285 -0.0000 -0.0000 -0.7184 -4.2442 1.3597 12.8977 -8.0541 0.3170 -10.1410 11.6665 3.6914 -5.5847 -5.2134 -0.4916 -11.5070 21.1429 25.4506 -5.4733 -35.1079 -85.1950 -0.0002 -44.8034 -0.0001 -17.1314 -31.5960 24.2929 -0.0000 0.0000 -0.0000 -0.0000 0.0000 -0.0000 21.5265 -22.0861 -8.4450 -18.6249 40.1688 90.1865 -0.0000 9.2166 0.0000 77.7436 -66.7405 -112.7783 -0.0000 0.0000 -0.0000 -0.0000 0.0000 -0.0000
 61.3863 36.9417 -5.7970 19.1619 85.3068 -25.8272 -2.4827 8.4961 12.8584 29.9666 -0.0000 0.0000 3.9507 -15.7607 -11.4856 -28.1266 -0.0000 -0.0000 -19.4075 -8.5156 4.3483 11.3470 0.0000 0.0000 24.5426 -1.0052 26.4297 1.8114 -0.0000 -0.0000 -0.8752 -4.1215 1.2149 12.7469 -8.0602 -0.1670 -10.1522 12.0873 3.5748 -4.6595 -4.5106 -0.5682 -11.2394 21.3436 25.1948 -3.8886 -34.6875 -85.2038 -0.0002 -40.0319 -0.0001 -17.9265 -31.7436 24.3478 -0.0000 0.0000 -0.0000 -0.0000 0.0000 -0.0000 21.0986 -21.9480 -9.0444 -19.3891 38.0229 91.1682 -0.0000 10.7680 0.0000 78.2382 -68.2259 -114.4786 -0.0000 0.0000 -0.0000 -0.0000 0.0000 -0.0000
 60.5256 37.1367 -6.1240 7.4918 84.4044 -13.1488 -3.1186 9.5084 11.5311 29.9402 -0.0000 0.0000 5.8249 -16.2211 -10.5701 -28.4301 -0.0000 -0.0000 -16.3892 -9.9372 3.0210 9.9288 0.0000 -0.0000 18.1050 1.4628 26.6833 -0.9269 -0.0000 0.0000 -0.7360 -3.9481 1.0258 12.1735 -8.1027 -0.9786 -9.9480 12.3387 3.4906 -3.8691 -3.9204 -1.0715 -10.9591 21.6839 25.0309 -2.1560 -34.6592 -85.3193 -0.0001 -35.1242 -0.0000 -17.8600 -30.8046 23.0644 -0.0000 -0.0000 0.0000 -0.0000 -0.0000 0.0000 21.0486 -22.0078 -9.3445 -19.3546 37.1115 91.4670 -0.0000 12.9064 0.0000 74.0277 -69.1158 -116.4077 -0.0000 0.0000 -0.0000 -0.0000 0.0000 -0.0000
 59.7545 37.3708 -6.4073 -0.0919 83.3904 -4.9337 -3.5325 9.8820 10.4153 29.6448 -0.0000 0.0000 8.1247 -15.8575 -9.6333 -29.0861 -0.0000 0.0000 -13.6940 -10.0586 1.9254 12.7282 -0.0000 0.0000 12.6398 0.4850 25.0688 -5.8818 -0.0000 -0.0000 -0.9116 -3.7170 1.0081 11.9301 -7.9560 -1.3443 -10.0652 12.5116 3.4314 -3.0560 -3.4269 -1.5145 -10.5861 22.4539 24.8718 -0.6673 -34.2228 -85.8588 -0.0001 -30.9171 -0.0000 -16.3540 -30.7000 23.1931 -0.0000 0.0000 -0.0000 -0.0000 0.0000 -0.0000 21.0240 -21.9410 -9.5612 -19.4870 36.2557 91.4303 -0.0001 14.7188 0.0000 71.9212 -69.4358 -117.3533 -0.0000 0.0000 -0.0000 -0.0000 0.0000 -0.0000
